<?xml version="1.0" encoding="UTF-8"?>
<svg width="211px" height="189px" viewBox="0 0 211 189" version="1.1" xmlns="http://www.w3.org/2000/svg" xmlns:xlink="http://www.w3.org/1999/xlink">
    <!-- Generator: Sketch 51.3 (57544) - http://www.bohemiancoding.com/sketch -->
    <title>metamask-recreated</title>
    <desc>Created with Sketch.</desc>
    <defs/>
    <g id="Symbols" stroke="none" stroke-width="1" fill="none" fill-rule="evenodd">
        <g id="logo/metamask-recreated">
            <g id="metamask-recreated">
                <polygon id="Path-16" fill="#CDBDB2" points="60.7500009 173.250003 88.3125013 180.562503 88.3125013 171.000003 90.5625013 168.750003 106.312502 168.750003 106.312502 180.000003 106.312502 187.875003 89.4375013 187.875003 68.625001 178.875003"/>
                <polygon id="Path-16-Copy" fill="#CDBDB2" transform="translate(128.250002, 178.312503) scale(-1, 1) translate(-128.250002, -178.312503) " points="105.750002 173.250003 132.750002 180.562503 132.750002 171.000003 135.000002 168.750003 150.750002 168.750003 150.750002 180.000003 150.750002 187.875003 133.875002 187.875003 113.062502 178.875003"/>
                <polygon id="Path-17" fill="#393939" points="90.5625013 152.437502 88.3125013 171.000003 91.1250014 168.750003 120.375002 168.750003 123.750002 171.000003 121.500002 152.437502 117.000002 149.625002 94.5000014 150.187502"/>
                <polygon id="Path-20" fill="#F89C35" points="75.3750011 27.0000004 88.8750013 58.5000009 95.0625014 150.187502 117.000002 150.187502 123.750002 58.5000009 136.125002 27.0000004"/>
                <g id="face/left">
                    <polygon id="Path-15" fill="#F89D35" points="16.3125002 96.1875014 0.562500008 141.750002 39.9375006 139.500002 65.250001 139.500002 65.250001 119.812502 64.125001 79.3125012 58.5000009 83.8125012"/>
                    <polygon id="Path-8" fill="#D87C30" points="46.1250007 101.250002 92.2500014 102.375002 87.1875013 126.000002 65.250001 120.375002"/>
                    <polygon id="Path-9" fill="#EA8D3A" points="46.1250007 101.812502 65.250001 119.812502 65.250001 137.812502"/>
                    <polygon id="Path-10" fill="#F89D35" points="65.250001 120.375002 87.7500013 126.000002 95.0625014 150.187502 90.0000013 153.000002 65.250001 138.375002"/>
                    <polygon id="Path-11" fill="#EB8F35" points="65.250001 138.375002 60.7500009 173.250003 90.5625013 152.437502"/>
                    <polygon id="Path-12" fill="#EA8E3A" points="92.2500014 102.375002 95.0625014 150.187502 86.6250013 125.718752"/>
                    <polygon id="Path-13" fill="#D87C30" points="39.3750006 138.937502 65.250001 138.375002 60.7500009 173.250003"/>
                    <polygon id="Path-14" fill="#EB8F35" points="12.9375002 188.437503 60.7500009 173.250003 39.3750006 138.937502 0.562500008 141.750002"/>
                    <polygon id="Path-7" fill="#E8821E" points="88.8750013 58.5000009 64.687501 78.7500012 46.1250007 101.250002 92.2500014 102.937502"/>
                    <polygon id="Path-18" fill="#DFCEC3" points="60.7500009 173.250003 90.5625013 152.437502 88.3125013 170.437503 88.3125013 180.562503 68.062501 176.625003"/>
                    <polygon id="Path-18-Copy" fill="#DFCEC3" transform="translate(136.125002, 166.500002) scale(-1, 1) translate(-136.125002, -166.500002) " points="121.500002 173.250003 150.750002 152.437502 148.500002 170.437503 148.500002 180.562503 128.250002 176.625003"/>
                    <polygon id="Path-19-Copy" fill="#393939" transform="translate(75.093751, 118.968752) scale(-1, 1) translate(-75.093751, -118.968752) " points="70.312501 112.500002 64.125001 125.437502 86.0625013 119.812502"/>
                    <polygon id="Path-21" fill="#E88F35" points="12.3750002 0.562500008 88.8750013 58.5000009 75.9375011 27.0000004"/>
                    <path d="M12.3750002,0.562500008 L2.25000003,31.5000005 L7.87500012,65.250001 L3.93750006,67.500001 L9.56250014,72.5625011 L5.06250008,76.5000011 L11.2500002,82.1250012 L7.31250011,85.5000013 L16.3125002,96.7500014 L58.5000009,83.8125012 C79.1250012,67.312501 89.2500013,58.8750009 88.8750013,58.5000009 C88.5000013,58.1250009 63.0000009,38.8125006 12.3750002,0.562500008 Z" id="Path-22" fill="#8E5A30"/>
                </g>
                <g id="face/left-copy" transform="translate(163.687502, 94.500001) scale(-1, 1) translate(-163.687502, -94.500001) translate(115.875002, 0.000000)">
                    <polygon id="Path-15" fill="#F89D35" points="16.3125002 96.1875014 0.562500008 141.750002 39.9375006 139.500002 65.250001 139.500002 65.250001 119.812502 64.125001 79.3125012 58.5000009 83.8125012"/>
                    <polygon id="Path-8" fill="#D87C30" points="46.1250007 101.250002 92.2500014 102.375002 87.1875013 126.000002 65.250001 120.375002"/>
                    <polygon id="Path-9" fill="#EA8D3A" points="46.1250007 101.812502 65.250001 119.812502 65.250001 137.812502"/>
                    <polygon id="Path-10" fill="#F89D35" points="65.250001 120.375002 87.7500013 126.000002 95.0625014 150.187502 90.0000013 153.000002 65.250001 138.375002"/>
                    <polygon id="Path-11" fill="#EB8F35" points="65.250001 138.375002 60.7500009 173.250003 90.0000013 153.000002"/>
                    <polygon id="Path-12" fill="#EA8E3A" points="92.2500014 102.375002 95.0625014 150.187502 86.6250013 125.718752"/>
                    <polygon id="Path-13" fill="#D87C30" points="39.3750006 138.937502 65.250001 138.375002 60.7500009 173.250003"/>
                    <polygon id="Path-14" fill="#EB8F35" points="12.9375002 188.437503 60.7500009 173.250003 39.3750006 138.937502 0.562500008 141.750002"/>
                    <polygon id="Path-7" fill="#E8821E" points="88.8750013 58.5000009 64.687501 78.7500012 46.1250007 101.250002 92.2500014 102.937502"/>
                    <polygon id="Path-19-Copy" fill="#393939" transform="translate(75.093751, 118.968752) scale(-1, 1) translate(-75.093751, -118.968752) " points="70.312501 112.500002 64.125001 125.437502 86.0625013 119.812502"/>
                    <polygon id="Path-21" fill="#E88F35" points="12.3750002 0.562500008 88.8750013 58.5000009 75.9375011 27.0000004"/>
                    <path d="M12.3750002,0.562500008 L2.25000003,31.5000005 L7.87500012,65.250001 L3.93750006,67.500001 L9.56250014,72.5625011 L5.06250008,76.5000011 L11.2500002,82.1250012 L7.31250011,85.5000013 L16.3125002,96.7500014 L58.5000009,83.8125012 C79.1250012,67.312501 89.2500013,58.8750009 88.8750013,58.5000009 C88.5000013,58.1250009 63.0000009,38.8125006 12.3750002,0.562500008 Z" id="Path-22" fill="#8E5A30"/>
                </g>
            </g>
        </g>
    </g>
</svg>